<svg xmlns="http://www.w3.org/2000/svg" width="20" height="20" viewBox="0 0 48 48">
  <path fill="#EA4335" d="M24 9.5c3.54 0 6.71 1.22 9.21 3.61l6.85-6.85C35.64 2.65 30.2 0 24 0 14.62 0 6.48 5.38 2.56 13.22l7.98 6.2C12.26 13.58 17.65 9.5 24 9.5z"/>
  <path fill="#4285F4" d="M46.5 24.5c0-1.57-.14-3.09-.39-4.55H24v9.1h12.65c-.55 2.96-2.23 5.47-4.71 7.17l7.25 5.63c4.24-3.91 6.81-9.67 6.81-17.35z"/>
  <path fill="#FBBC05" d="M10.54 28.57a14.52 14.52 0 0 1 0-9.14l-7.98-6.2A23.937 23.937 0 0 0 0 24c0 3.87.92 7.52 2.56 10.77l7.98-6.2z"/>
  <path fill="#34A853" d="M24 48c6.48 0 11.92-2.14 15.89-5.86l-7.25-5.63c-2.02 1.36-4.61 2.16-8.64 2.16-6.35 0-11.74-4.08-13.46-9.48l-7.98 6.2C6.48 42.62 14.62 48 24 48z"/>
</svg>
